<svg id="Layer_1" data-name="Layer 1" xmlns="http://www.w3.org/2000/svg" viewBox="0 0 108.76 109.73"><defs><style>.cls-1{fill:#b3b3b3;}.cls-1,.cls-2{stroke:#000;stroke-miterlimit:10;}.cls-2,.cls-5{fill:#fff;}.cls-3{fill:#4d4d4d;}.cls-4{fill:none;}.cls-6{fill:#666;}</style></defs><title>lixo</title><polyline class="cls-1" points="3.76 10.48 3.76 109.23 103.76 109.23 103.76 10.48"/><path class="cls-2" d="M762.33,432.67" transform="translate(-644.39 -371.02)"/><path class="cls-2" d="M767.67,432.67" transform="translate(-644.39 -371.02)"/><path class="cls-3" d="M663.86,467.64V396.85a3.05,3.05,0,0,1-4.14,0v70.77a3.07,3.07,0,0,1,4.14,0Z" transform="translate(-644.39 -371.02)"/><path class="cls-3" d="M661.76,396.68a2.1,2.1,0,0,0,2.09-2v-.11a2.09,2.09,0,0,0-4.18-.06h0V395A2.1,2.1,0,0,0,661.76,396.68Z" transform="translate(-644.39 -371.02)"/><path class="cls-3" d="M664.86,394.58s0,0,0-.05v.11S664.86,394.6,664.86,394.58Z" transform="translate(-644.39 -371.02)"/><path class="cls-3" d="M663.86,469.48a2.11,2.11,0,0,0-4.14.11V470h0a2.12,2.12,0,1,0,4.24,0h-.06Z" transform="translate(-644.39 -371.02)"/><path class="cls-3" d="M659.68,394.46s0,.08,0,.12a2.09,2.09,0,0,0,0,.44v-.55Z" transform="translate(-644.39 -371.02)"/><path class="cls-3" d="M659.18,394.46s0,.08,0,.12a2.6,2.6,0,0,0,0,.47v-.59Z" transform="translate(-644.39 -371.02)"/><path class="cls-3" d="M659.71,395a2.09,2.09,0,0,1,0-.44s0-.08,0-.12h-.46v.59a2.57,2.57,0,0,0,.5,1.1Z" transform="translate(-644.39 -371.02)"/><path class="cls-3" d="M659.71,469.59a2.11,2.11,0,0,0,0,.37h0Z" transform="translate(-644.39 -371.02)"/><path class="cls-3" d="M659.71,467.66a3.13,3.13,0,0,0-.5.56v1.38a2.59,2.59,0,0,1,.5-1.2Z" transform="translate(-644.39 -371.02)"/><path class="cls-3" d="M659.18,470a2.59,2.59,0,0,1,0-.37v-1.38a3.1,3.1,0,0,0-.5,1.38V470Z" transform="translate(-644.39 -371.02)"/><path class="cls-3" d="M659.21,469.59a2.59,2.59,0,0,0,0,.37h0Z" transform="translate(-644.39 -371.02)"/><path class="cls-3" d="M664.86,394.46h0s0,0,0,.06Z" transform="translate(-644.39 -371.02)"/><path class="cls-3" d="M663.86,394.58s0,0,0-.05v.11S663.86,394.6,663.86,394.58Z" transform="translate(-644.39 -371.02)"/><path class="cls-3" d="M664.36,394.46h0s0,0,0,.07Z" transform="translate(-644.39 -371.02)"/><path class="cls-3" d="M664.36,394.58s0,0,0-.05v.1S664.36,394.59,664.36,394.58Z" transform="translate(-644.39 -371.02)"/><path class="cls-3" d="M663.86,470h.06a2.1,2.1,0,0,0-.06-.48Z" transform="translate(-644.39 -371.02)"/><path class="cls-3" d="M663.86,467.64v.72a2.6,2.6,0,0,1,.5,1.05v-1.23A3.13,3.13,0,0,0,663.86,467.64Z" transform="translate(-644.39 -371.02)"/><path class="cls-3" d="M664.36,470h.06a2.62,2.62,0,0,0-.06-.55Z" transform="translate(-644.39 -371.02)"/><path class="cls-3" d="M664.36,468.19a3.1,3.1,0,0,1,.5,1.18V394.63a3.08,3.08,0,0,1-.5,1.63Z" transform="translate(-644.39 -371.02)"/><path class="cls-3" d="M659.18,394.46a2.59,2.59,0,0,1,5.17,0h.5a3.09,3.09,0,0,0-6.18.12,3.06,3.06,0,0,0,0,.47v-.59Z" transform="translate(-644.39 -371.02)"/><path class="cls-3" d="M659.68,394.46a2.09,2.09,0,0,1,4.18.06v-.06h.49a2.59,2.59,0,0,0-5.17,0h.5Z" transform="translate(-644.39 -371.02)"/><path class="cls-3" d="M664.86,469.37V470h-.44a2.62,2.62,0,0,1-5.24,0h-.46v-.37a3.06,3.06,0,0,0,0,.37,3.12,3.12,0,1,0,6.18-.59Z" transform="translate(-644.39 -371.02)"/><path class="cls-3" d="M663.92,470a2.12,2.12,0,1,1-4.24,0h-.5a2.62,2.62,0,0,0,5.24,0h-.5Z" transform="translate(-644.39 -371.02)"/><path class="cls-3" d="M659.21,396.33a3.07,3.07,0,0,1-.5-1.28v74.54a3.1,3.1,0,0,1,.5-1.38Z" transform="translate(-644.39 -371.02)"/><path class="cls-3" d="M659.71,467.66V396.88a3.11,3.11,0,0,1-.5-.55v71.88A3.13,3.13,0,0,1,659.71,467.66Z" transform="translate(-644.39 -371.02)"/><path class="cls-3" d="M659.71,396.88v-.73a2.57,2.57,0,0,1-.5-1.1v1.28A3.11,3.11,0,0,0,659.71,396.88Z" transform="translate(-644.39 -371.02)"/><path class="cls-3" d="M659.21,395.05a2.6,2.6,0,0,1,0-.47s0-.08,0-.12h-.46v.59a3.07,3.07,0,0,0,.5,1.28Z" transform="translate(-644.39 -371.02)"/><path class="cls-3" d="M659.68,470a2.11,2.11,0,0,1,0-.37v-1.2a2.59,2.59,0,0,0-.5,1.2V470Z" transform="translate(-644.39 -371.02)"/><path class="cls-3" d="M663.86,396.85v70.79a3.13,3.13,0,0,1,.5.55V396.26A3.11,3.11,0,0,1,663.86,396.85Z" transform="translate(-644.39 -371.02)"/><path class="cls-3" d="M664.36,394.53s0,0,0,.05,0,0,0,.05v1.64a3.08,3.08,0,0,0,.5-1.63v-.11s0,0,0-.06h-.49Z" transform="translate(-644.39 -371.02)"/><path class="cls-3" d="M663.86,396.85a3.11,3.11,0,0,0,.5-.58v-1.64a2.58,2.58,0,0,1-.5,1.48Z" transform="translate(-644.39 -371.02)"/><path class="cls-3" d="M663.86,394.52s0,0,0,.05,0,0,0,.05v1.47a2.58,2.58,0,0,0,.5-1.48v-.1s0,0,0-.07h-.49Z" transform="translate(-644.39 -371.02)"/><path class="cls-3" d="M664.36,469.41a2.62,2.62,0,0,1,.06.55h.44v-.59a3.1,3.1,0,0,0-.5-1.18Z" transform="translate(-644.39 -371.02)"/><path class="cls-3" d="M663.86,469.48a2.1,2.1,0,0,1,.06.48h.44v-.55a2.6,2.6,0,0,0-.5-1.05Z" transform="translate(-644.39 -371.02)"/><path class="cls-3" d="M675.8,467.64V396.85a3.05,3.05,0,0,1-4.14,0v70.77a3.07,3.07,0,0,1,4.14,0Z" transform="translate(-644.39 -371.02)"/><path class="cls-3" d="M673.71,396.68a2.1,2.1,0,0,0,2.09-2v-.11a2.09,2.09,0,0,0-4.18-.06h0V395A2.1,2.1,0,0,0,673.71,396.68Z" transform="translate(-644.39 -371.02)"/><path class="cls-3" d="M676.81,394.58s0,0,0-.05v.11S676.81,394.6,676.81,394.58Z" transform="translate(-644.39 -371.02)"/><path class="cls-3" d="M675.8,469.48a2.11,2.11,0,0,0-4.14.11V470h0a2.12,2.12,0,1,0,4.24,0h-.06Z" transform="translate(-644.39 -371.02)"/><path class="cls-3" d="M671.62,394.46s0,.08,0,.12a2.09,2.09,0,0,0,0,.44v-.55Z" transform="translate(-644.39 -371.02)"/><path class="cls-3" d="M671.12,394.46s0,.08,0,.12a2.6,2.6,0,0,0,0,.47v-.59Z" transform="translate(-644.39 -371.02)"/><path class="cls-3" d="M671.66,395a2.09,2.09,0,0,1,0-.44s0-.08,0-.12h-.46v.59a2.57,2.57,0,0,0,.5,1.1Z" transform="translate(-644.39 -371.02)"/><path class="cls-3" d="M671.66,469.59a2.11,2.11,0,0,0,0,.37h0Z" transform="translate(-644.39 -371.02)"/><path class="cls-3" d="M671.66,467.66a3.13,3.13,0,0,0-.5.56v1.38a2.59,2.59,0,0,1,.5-1.2Z" transform="translate(-644.39 -371.02)"/><path class="cls-3" d="M671.12,470a2.59,2.59,0,0,1,0-.37v-1.38a3.1,3.1,0,0,0-.5,1.38V470Z" transform="translate(-644.39 -371.02)"/><path class="cls-3" d="M671.16,469.59a2.59,2.59,0,0,0,0,.37h0Z" transform="translate(-644.39 -371.02)"/><path class="cls-3" d="M676.8,394.46h0s0,0,0,.06Z" transform="translate(-644.39 -371.02)"/><path class="cls-3" d="M675.81,394.58s0,0,0-.05v.11S675.81,394.6,675.81,394.58Z" transform="translate(-644.39 -371.02)"/><path class="cls-3" d="M676.3,394.46h0s0,0,0,.07Z" transform="translate(-644.39 -371.02)"/><path class="cls-3" d="M676.31,394.58s0,0,0-.05v.1S676.31,394.59,676.31,394.58Z" transform="translate(-644.39 -371.02)"/><path class="cls-3" d="M675.8,470h.06a2.1,2.1,0,0,0-.06-.48Z" transform="translate(-644.39 -371.02)"/><path class="cls-3" d="M675.8,467.64v.72a2.6,2.6,0,0,1,.5,1.05v-1.23A3.13,3.13,0,0,0,675.8,467.64Z" transform="translate(-644.39 -371.02)"/><path class="cls-3" d="M676.3,470h.06a2.62,2.62,0,0,0-.06-.55Z" transform="translate(-644.39 -371.02)"/><path class="cls-3" d="M676.3,468.19a3.1,3.1,0,0,1,.5,1.18V394.63a3.08,3.08,0,0,1-.5,1.63Z" transform="translate(-644.39 -371.02)"/><path class="cls-3" d="M671.12,394.46a2.59,2.59,0,0,1,5.17,0h.5a3.09,3.09,0,0,0-6.18.12,3.06,3.06,0,0,0,0,.47v-.59Z" transform="translate(-644.39 -371.02)"/><path class="cls-3" d="M671.62,394.46a2.09,2.09,0,0,1,4.18.06v-.06h.49a2.59,2.59,0,0,0-5.17,0h.5Z" transform="translate(-644.39 -371.02)"/><path class="cls-3" d="M676.8,469.37V470h-.44a2.62,2.62,0,0,1-5.24,0h-.46v-.37a3.06,3.06,0,0,0,0,.37,3.12,3.12,0,1,0,6.18-.59Z" transform="translate(-644.39 -371.02)"/><path class="cls-3" d="M675.86,470a2.12,2.12,0,1,1-4.24,0h-.5a2.62,2.62,0,0,0,5.24,0h-.5Z" transform="translate(-644.39 -371.02)"/><path class="cls-3" d="M671.16,396.33a3.07,3.07,0,0,1-.5-1.28v74.54a3.1,3.1,0,0,1,.5-1.38Z" transform="translate(-644.39 -371.02)"/><path class="cls-3" d="M671.66,467.66V396.88a3.11,3.11,0,0,1-.5-.55v71.88A3.13,3.13,0,0,1,671.66,467.66Z" transform="translate(-644.39 -371.02)"/><path class="cls-3" d="M671.66,396.88v-.73a2.57,2.57,0,0,1-.5-1.1v1.28A3.11,3.11,0,0,0,671.66,396.88Z" transform="translate(-644.39 -371.02)"/><path class="cls-3" d="M671.16,395.05a2.6,2.6,0,0,1,0-.47s0-.08,0-.12h-.46v.59a3.07,3.07,0,0,0,.5,1.28Z" transform="translate(-644.39 -371.02)"/><path class="cls-3" d="M671.62,470a2.11,2.11,0,0,1,0-.37v-1.2a2.59,2.59,0,0,0-.5,1.2V470Z" transform="translate(-644.39 -371.02)"/><path class="cls-3" d="M675.8,396.85v70.79a3.13,3.13,0,0,1,.5.55V396.26A3.11,3.11,0,0,1,675.8,396.85Z" transform="translate(-644.39 -371.02)"/><path class="cls-3" d="M676.3,394.53s0,0,0,.05,0,0,0,.05v1.64a3.08,3.08,0,0,0,.5-1.63v-.11s0,0,0-.06h-.49Z" transform="translate(-644.39 -371.02)"/><path class="cls-3" d="M675.8,396.85a3.11,3.11,0,0,0,.5-.58v-1.64a2.58,2.58,0,0,1-.5,1.48Z" transform="translate(-644.39 -371.02)"/><path class="cls-3" d="M675.8,394.52s0,0,0,.05,0,0,0,.05v1.47a2.58,2.58,0,0,0,.5-1.48v-.1s0,0,0-.07h-.49Z" transform="translate(-644.39 -371.02)"/><path class="cls-3" d="M676.3,469.41a2.62,2.62,0,0,1,.06.55h.44v-.59a3.1,3.1,0,0,0-.5-1.18Z" transform="translate(-644.39 -371.02)"/><path class="cls-3" d="M675.8,469.48a2.1,2.1,0,0,1,.06.48h.44v-.55a2.6,2.6,0,0,0-.5-1.05Z" transform="translate(-644.39 -371.02)"/><path class="cls-3" d="M687.75,467.64V396.85a3.05,3.05,0,0,1-4.14,0v70.77a3.07,3.07,0,0,1,4.14,0Z" transform="translate(-644.39 -371.02)"/><path class="cls-3" d="M685.65,396.68a2.1,2.1,0,0,0,2.09-2v-.11a2.09,2.09,0,0,0-4.18-.06h0V395A2.1,2.1,0,0,0,685.65,396.68Z" transform="translate(-644.39 -371.02)"/><path class="cls-3" d="M688.75,394.58s0,0,0-.05v.11S688.75,394.6,688.75,394.58Z" transform="translate(-644.39 -371.02)"/><path class="cls-3" d="M687.75,469.48a2.11,2.11,0,0,0-4.14.11V470h0a2.12,2.12,0,1,0,4.24,0h-.06Z" transform="translate(-644.39 -371.02)"/><path class="cls-3" d="M683.57,394.46s0,.08,0,.12a2.09,2.09,0,0,0,0,.44v-.55Z" transform="translate(-644.39 -371.02)"/><path class="cls-3" d="M683.07,394.46s0,.08,0,.12a2.6,2.6,0,0,0,0,.47v-.59Z" transform="translate(-644.39 -371.02)"/><path class="cls-3" d="M683.6,395a2.09,2.09,0,0,1,0-.44s0-.08,0-.12h-.46v.59a2.57,2.57,0,0,0,.5,1.1Z" transform="translate(-644.39 -371.02)"/><path class="cls-3" d="M683.6,469.59a2.11,2.11,0,0,0,0,.37h0Z" transform="translate(-644.39 -371.02)"/><path class="cls-3" d="M683.6,467.66a3.13,3.13,0,0,0-.5.56v1.38a2.59,2.59,0,0,1,.5-1.2Z" transform="translate(-644.39 -371.02)"/><path class="cls-3" d="M683.06,470a2.59,2.59,0,0,1,0-.37v-1.38a3.1,3.1,0,0,0-.5,1.38V470Z" transform="translate(-644.39 -371.02)"/><path class="cls-3" d="M683.1,469.59a2.59,2.59,0,0,0,0,.37h0Z" transform="translate(-644.39 -371.02)"/><path class="cls-3" d="M688.75,394.46h0s0,0,0,.06Z" transform="translate(-644.39 -371.02)"/><path class="cls-3" d="M687.75,394.58s0,0,0-.05v.11S687.75,394.6,687.75,394.58Z" transform="translate(-644.39 -371.02)"/><path class="cls-3" d="M688.25,394.46h0s0,0,0,.07Z" transform="translate(-644.39 -371.02)"/><path class="cls-3" d="M688.25,394.58s0,0,0-.05v.1S688.25,394.59,688.25,394.58Z" transform="translate(-644.39 -371.02)"/><path class="cls-3" d="M687.75,470h.06a2.1,2.1,0,0,0-.06-.48Z" transform="translate(-644.39 -371.02)"/><path class="cls-3" d="M687.75,467.64v.72a2.6,2.6,0,0,1,.5,1.05v-1.23A3.13,3.13,0,0,0,687.75,467.64Z" transform="translate(-644.39 -371.02)"/><path class="cls-3" d="M688.25,470h.06a2.62,2.62,0,0,0-.06-.55Z" transform="translate(-644.39 -371.02)"/><path class="cls-3" d="M688.25,468.19a3.1,3.1,0,0,1,.5,1.18V394.63a3.08,3.08,0,0,1-.5,1.63Z" transform="translate(-644.39 -371.02)"/><path class="cls-3" d="M683.07,394.46a2.59,2.59,0,0,1,5.17,0h.5a3.09,3.09,0,0,0-6.18.12,3.06,3.06,0,0,0,0,.47v-.59Z" transform="translate(-644.39 -371.02)"/><path class="cls-3" d="M683.57,394.46a2.09,2.09,0,0,1,4.18.06v-.06h.49a2.59,2.59,0,0,0-5.17,0h.5Z" transform="translate(-644.39 -371.02)"/><path class="cls-3" d="M688.75,469.37V470h-.44a2.62,2.62,0,0,1-5.24,0h-.46v-.37a3.06,3.06,0,0,0,0,.37,3.12,3.12,0,1,0,6.18-.59Z" transform="translate(-644.39 -371.02)"/><path class="cls-3" d="M687.81,470a2.12,2.12,0,1,1-4.24,0h-.5a2.62,2.62,0,0,0,5.24,0h-.5Z" transform="translate(-644.39 -371.02)"/><path class="cls-3" d="M683.1,396.33a3.07,3.07,0,0,1-.5-1.28v74.54a3.1,3.1,0,0,1,.5-1.38Z" transform="translate(-644.39 -371.02)"/><path class="cls-3" d="M683.6,467.66V396.88a3.11,3.11,0,0,1-.5-.55v71.88A3.13,3.13,0,0,1,683.6,467.66Z" transform="translate(-644.39 -371.02)"/><path class="cls-3" d="M683.6,396.88v-.73a2.57,2.57,0,0,1-.5-1.1v1.28A3.11,3.11,0,0,0,683.6,396.88Z" transform="translate(-644.39 -371.02)"/><path class="cls-3" d="M683.1,395.05a2.6,2.6,0,0,1,0-.47s0-.08,0-.12h-.46v.59a3.07,3.07,0,0,0,.5,1.28Z" transform="translate(-644.39 -371.02)"/><path class="cls-3" d="M683.56,470a2.11,2.11,0,0,1,0-.37v-1.2a2.59,2.59,0,0,0-.5,1.2V470Z" transform="translate(-644.39 -371.02)"/><path class="cls-3" d="M687.75,396.85v70.79a3.13,3.13,0,0,1,.5.55V396.26A3.11,3.11,0,0,1,687.75,396.85Z" transform="translate(-644.39 -371.02)"/><path class="cls-3" d="M688.25,394.53s0,0,0,.05,0,0,0,.05v1.64a3.08,3.08,0,0,0,.5-1.63v-.11s0,0,0-.06h-.49Z" transform="translate(-644.39 -371.02)"/><path class="cls-3" d="M687.75,396.85a3.11,3.11,0,0,0,.5-.58v-1.64a2.58,2.58,0,0,1-.5,1.48Z" transform="translate(-644.39 -371.02)"/><path class="cls-3" d="M687.75,394.52s0,0,0,.05,0,0,0,.05v1.47a2.58,2.58,0,0,0,.5-1.48v-.1s0,0,0-.07h-.49Z" transform="translate(-644.39 -371.02)"/><path class="cls-3" d="M688.25,469.41a2.62,2.62,0,0,1,.06.55h.44v-.59a3.1,3.1,0,0,0-.5-1.18Z" transform="translate(-644.39 -371.02)"/><path class="cls-3" d="M687.75,469.48a2.1,2.1,0,0,1,.06.48h.44v-.55a2.6,2.6,0,0,0-.5-1.05Z" transform="translate(-644.39 -371.02)"/><path class="cls-3" d="M735.52,467.64V396.85a3.05,3.05,0,0,1-4.14,0v70.77a3.07,3.07,0,0,1,4.14,0Z" transform="translate(-644.39 -371.02)"/><path class="cls-3" d="M733.43,396.68a2.1,2.1,0,0,0,2.09-2v-.11a2.09,2.09,0,0,0-4.18-.06h0V395A2.1,2.1,0,0,0,733.43,396.68Z" transform="translate(-644.39 -371.02)"/><path class="cls-3" d="M736.53,394.58s0,0,0-.05v.11S736.53,394.6,736.53,394.58Z" transform="translate(-644.39 -371.02)"/><path class="cls-3" d="M735.52,469.48a2.11,2.11,0,0,0-4.14.11V470h0a2.12,2.12,0,1,0,4.24,0h-.06Z" transform="translate(-644.39 -371.02)"/><path class="cls-3" d="M731.34,394.46s0,.08,0,.12a2.09,2.09,0,0,0,0,.44v-.55Z" transform="translate(-644.39 -371.02)"/><path class="cls-3" d="M730.84,394.46s0,.08,0,.12a2.6,2.6,0,0,0,0,.47v-.59Z" transform="translate(-644.39 -371.02)"/><path class="cls-3" d="M731.38,395a2.09,2.09,0,0,1,0-.44s0-.08,0-.12h-.46v.59a2.57,2.57,0,0,0,.5,1.1Z" transform="translate(-644.39 -371.02)"/><path class="cls-3" d="M731.38,469.59a2.11,2.11,0,0,0,0,.37h0Z" transform="translate(-644.39 -371.02)"/><path class="cls-3" d="M731.38,467.66a3.13,3.13,0,0,0-.5.56v1.38a2.59,2.59,0,0,1,.5-1.2Z" transform="translate(-644.39 -371.02)"/><path class="cls-3" d="M730.84,470a2.59,2.59,0,0,1,0-.37v-1.38a3.1,3.1,0,0,0-.5,1.38V470Z" transform="translate(-644.39 -371.02)"/><path class="cls-3" d="M730.88,469.59a2.59,2.59,0,0,0,0,.37h0Z" transform="translate(-644.39 -371.02)"/><path class="cls-3" d="M736.52,394.46h0s0,0,0,.06Z" transform="translate(-644.39 -371.02)"/><path class="cls-3" d="M735.53,394.58s0,0,0-.05v.11S735.53,394.6,735.53,394.58Z" transform="translate(-644.39 -371.02)"/><path class="cls-3" d="M736,394.46h0s0,0,0,.07Z" transform="translate(-644.39 -371.02)"/><path class="cls-3" d="M736,394.58s0,0,0-.05v.1S736,394.59,736,394.58Z" transform="translate(-644.39 -371.02)"/><path class="cls-3" d="M735.52,470h.06a2.1,2.1,0,0,0-.06-.48Z" transform="translate(-644.39 -371.02)"/><path class="cls-3" d="M735.52,467.64v.72a2.6,2.6,0,0,1,.5,1.05v-1.23A3.13,3.13,0,0,0,735.52,467.64Z" transform="translate(-644.39 -371.02)"/><path class="cls-3" d="M736,470h.06a2.62,2.62,0,0,0-.06-.55Z" transform="translate(-644.39 -371.02)"/><path class="cls-3" d="M736,468.19a3.1,3.1,0,0,1,.5,1.18V394.63a3.08,3.08,0,0,1-.5,1.63Z" transform="translate(-644.39 -371.02)"/><path class="cls-3" d="M730.84,394.46a2.59,2.59,0,0,1,5.17,0h.5a3.09,3.09,0,0,0-6.18.12,3.06,3.06,0,0,0,0,.47v-.59Z" transform="translate(-644.39 -371.02)"/><path class="cls-3" d="M731.34,394.46a2.09,2.09,0,0,1,4.18.06v-.06H736a2.59,2.59,0,0,0-5.17,0h.5Z" transform="translate(-644.39 -371.02)"/><path class="cls-3" d="M736.52,469.37V470h-.44a2.62,2.62,0,0,1-5.24,0h-.46v-.37a3.06,3.06,0,0,0,0,.37,3.12,3.12,0,1,0,6.18-.59Z" transform="translate(-644.39 -371.02)"/><path class="cls-3" d="M735.58,470a2.12,2.12,0,1,1-4.24,0h-.5a2.62,2.62,0,0,0,5.24,0h-.5Z" transform="translate(-644.39 -371.02)"/><path class="cls-3" d="M730.88,396.33a3.07,3.07,0,0,1-.5-1.28v74.54a3.1,3.1,0,0,1,.5-1.38Z" transform="translate(-644.39 -371.02)"/><path class="cls-3" d="M731.38,467.66V396.88a3.11,3.11,0,0,1-.5-.55v71.88A3.13,3.13,0,0,1,731.38,467.66Z" transform="translate(-644.39 -371.02)"/><path class="cls-3" d="M731.38,396.88v-.73a2.57,2.57,0,0,1-.5-1.1v1.28A3.11,3.11,0,0,0,731.38,396.88Z" transform="translate(-644.39 -371.02)"/><path class="cls-3" d="M730.88,395.05a2.6,2.6,0,0,1,0-.47s0-.08,0-.12h-.46v.59a3.07,3.07,0,0,0,.5,1.28Z" transform="translate(-644.39 -371.02)"/><path class="cls-3" d="M731.34,470a2.11,2.11,0,0,1,0-.37v-1.2a2.59,2.59,0,0,0-.5,1.2V470Z" transform="translate(-644.39 -371.02)"/><path class="cls-3" d="M735.52,396.85v70.79a3.13,3.13,0,0,1,.5.55V396.26A3.11,3.11,0,0,1,735.52,396.85Z" transform="translate(-644.39 -371.02)"/><path class="cls-3" d="M736,394.53s0,0,0,.05,0,0,0,.05v1.64a3.08,3.08,0,0,0,.5-1.63v-.11s0,0,0-.06H736Z" transform="translate(-644.39 -371.02)"/><path class="cls-3" d="M735.52,396.85a3.11,3.11,0,0,0,.5-.58v-1.64a2.58,2.58,0,0,1-.5,1.48Z" transform="translate(-644.39 -371.02)"/><path class="cls-3" d="M735.52,394.52s0,0,0,.05,0,0,0,.05v1.47a2.58,2.58,0,0,0,.5-1.48v-.1s0,0,0-.07h-.49Z" transform="translate(-644.39 -371.02)"/><path class="cls-3" d="M736,469.41a2.62,2.62,0,0,1,.06.55h.44v-.59a3.1,3.1,0,0,0-.5-1.18Z" transform="translate(-644.39 -371.02)"/><path class="cls-3" d="M735.52,469.48a2.1,2.1,0,0,1,.06.48H736v-.55a2.6,2.6,0,0,0-.5-1.05Z" transform="translate(-644.39 -371.02)"/><path class="cls-3" d="M699.69,467.64V396.85a3.05,3.05,0,0,1-4.14,0v70.77a3.07,3.07,0,0,1,4.14,0Z" transform="translate(-644.39 -371.02)"/><path class="cls-3" d="M697.6,396.68a2.1,2.1,0,0,0,2.09-2v-.11a2.09,2.09,0,0,0-4.18-.06h0V395A2.1,2.1,0,0,0,697.6,396.68Z" transform="translate(-644.39 -371.02)"/><path class="cls-3" d="M700.7,394.58s0,0,0-.05v.11S700.7,394.6,700.7,394.58Z" transform="translate(-644.39 -371.02)"/><path class="cls-3" d="M699.69,469.48a2.11,2.11,0,0,0-4.14.11V470h0a2.12,2.12,0,1,0,4.24,0h-.06Z" transform="translate(-644.39 -371.02)"/><path class="cls-3" d="M695.51,394.46s0,.08,0,.12a2.09,2.09,0,0,0,0,.44v-.55Z" transform="translate(-644.39 -371.02)"/><path class="cls-3" d="M695,394.46s0,.08,0,.12a2.6,2.6,0,0,0,0,.47v-.59Z" transform="translate(-644.39 -371.02)"/><path class="cls-3" d="M695.55,395a2.09,2.09,0,0,1,0-.44s0-.08,0-.12H695v.59a2.57,2.57,0,0,0,.5,1.1Z" transform="translate(-644.39 -371.02)"/><path class="cls-3" d="M695.55,469.59a2.11,2.11,0,0,0,0,.37h0Z" transform="translate(-644.39 -371.02)"/><path class="cls-3" d="M695.55,467.66a3.13,3.13,0,0,0-.5.56v1.38a2.59,2.59,0,0,1,.5-1.2Z" transform="translate(-644.39 -371.02)"/><path class="cls-3" d="M695,470a2.59,2.59,0,0,1,0-.37v-1.38a3.1,3.1,0,0,0-.5,1.38V470Z" transform="translate(-644.39 -371.02)"/><path class="cls-3" d="M695,469.59a2.59,2.59,0,0,0,0,.37h0Z" transform="translate(-644.39 -371.02)"/><path class="cls-3" d="M700.69,394.46h0s0,0,0,.06Z" transform="translate(-644.39 -371.02)"/><path class="cls-3" d="M699.7,394.58s0,0,0-.05v.11S699.7,394.6,699.7,394.58Z" transform="translate(-644.39 -371.02)"/><path class="cls-3" d="M700.19,394.46h0s0,0,0,.07Z" transform="translate(-644.39 -371.02)"/><path class="cls-3" d="M700.2,394.58s0,0,0-.05v.1S700.2,394.59,700.2,394.58Z" transform="translate(-644.39 -371.02)"/><path class="cls-3" d="M699.69,470h.06a2.1,2.1,0,0,0-.06-.48Z" transform="translate(-644.39 -371.02)"/><path class="cls-3" d="M699.69,467.64v.72a2.6,2.6,0,0,1,.5,1.05v-1.23A3.13,3.13,0,0,0,699.69,467.64Z" transform="translate(-644.39 -371.02)"/><path class="cls-3" d="M700.19,470h.06a2.62,2.62,0,0,0-.06-.55Z" transform="translate(-644.39 -371.02)"/><path class="cls-3" d="M700.19,468.19a3.1,3.1,0,0,1,.5,1.18V394.63a3.08,3.08,0,0,1-.5,1.63Z" transform="translate(-644.39 -371.02)"/><path class="cls-3" d="M695,394.46a2.59,2.59,0,0,1,5.17,0h.5a3.09,3.09,0,0,0-6.18.12,3.06,3.06,0,0,0,0,.47v-.59Z" transform="translate(-644.39 -371.02)"/><path class="cls-3" d="M695.51,394.46a2.09,2.09,0,0,1,4.18.06v-.06h.49a2.59,2.59,0,0,0-5.17,0h.5Z" transform="translate(-644.39 -371.02)"/><path class="cls-3" d="M700.69,469.37V470h-.44a2.62,2.62,0,0,1-5.24,0h-.46v-.37a3.06,3.06,0,0,0,0,.37,3.12,3.12,0,1,0,6.18-.59Z" transform="translate(-644.39 -371.02)"/><path class="cls-3" d="M699.75,470a2.12,2.12,0,1,1-4.24,0H695a2.62,2.62,0,0,0,5.24,0h-.5Z" transform="translate(-644.39 -371.02)"/><path class="cls-3" d="M695,396.33a3.07,3.07,0,0,1-.5-1.28v74.54a3.1,3.1,0,0,1,.5-1.38Z" transform="translate(-644.39 -371.02)"/><path class="cls-3" d="M695.55,467.66V396.88a3.11,3.11,0,0,1-.5-.55v71.88A3.13,3.13,0,0,1,695.55,467.66Z" transform="translate(-644.39 -371.02)"/><path class="cls-3" d="M695.55,396.88v-.73a2.57,2.57,0,0,1-.5-1.1v1.28A3.11,3.11,0,0,0,695.55,396.88Z" transform="translate(-644.39 -371.02)"/><path class="cls-3" d="M695,395.05a2.6,2.6,0,0,1,0-.47s0-.08,0-.12h-.46v.59a3.07,3.07,0,0,0,.5,1.28Z" transform="translate(-644.39 -371.02)"/><path class="cls-3" d="M695.51,470a2.11,2.11,0,0,1,0-.37v-1.2a2.59,2.59,0,0,0-.5,1.2V470Z" transform="translate(-644.39 -371.02)"/><path class="cls-3" d="M699.69,396.85v70.79a3.13,3.13,0,0,1,.5.55V396.26A3.11,3.11,0,0,1,699.69,396.85Z" transform="translate(-644.39 -371.02)"/><path class="cls-3" d="M700.19,394.53s0,0,0,.05,0,0,0,.05v1.64a3.08,3.08,0,0,0,.5-1.63v-.11s0,0,0-.06h-.49Z" transform="translate(-644.39 -371.02)"/><path class="cls-3" d="M699.69,396.85a3.11,3.11,0,0,0,.5-.58v-1.64a2.58,2.58,0,0,1-.5,1.48Z" transform="translate(-644.39 -371.02)"/><path class="cls-3" d="M699.69,394.52s0,0,0,.05,0,0,0,.05v1.47a2.58,2.58,0,0,0,.5-1.48v-.1s0,0,0-.07h-.49Z" transform="translate(-644.39 -371.02)"/><path class="cls-3" d="M700.19,469.41a2.62,2.62,0,0,1,.06.55h.44v-.59a3.1,3.1,0,0,0-.5-1.18Z" transform="translate(-644.39 -371.02)"/><path class="cls-3" d="M699.69,469.48a2.1,2.1,0,0,1,.06.48h.44v-.55a2.6,2.6,0,0,0-.5-1.05Z" transform="translate(-644.39 -371.02)"/><path class="cls-3" d="M711.63,467.64V396.85a3.05,3.05,0,0,1-4.14,0v70.77a3.07,3.07,0,0,1,4.14,0Z" transform="translate(-644.39 -371.02)"/><path class="cls-3" d="M709.54,396.68a2.1,2.1,0,0,0,2.09-2v-.11a2.09,2.09,0,0,0-4.18-.06h0V395A2.1,2.1,0,0,0,709.54,396.68Z" transform="translate(-644.39 -371.02)"/><path class="cls-3" d="M712.64,394.58s0,0,0-.05v.11S712.64,394.6,712.64,394.58Z" transform="translate(-644.39 -371.02)"/><path class="cls-3" d="M711.63,469.48a2.11,2.11,0,0,0-4.14.11V470h0a2.12,2.12,0,1,0,4.24,0h-.06Z" transform="translate(-644.39 -371.02)"/><path class="cls-3" d="M707.46,394.46s0,.08,0,.12a2.09,2.09,0,0,0,0,.44v-.55Z" transform="translate(-644.39 -371.02)"/><path class="cls-3" d="M707,394.46s0,.08,0,.12a2.6,2.6,0,0,0,0,.47v-.59Z" transform="translate(-644.39 -371.02)"/><path class="cls-3" d="M707.49,395a2.09,2.09,0,0,1,0-.44s0-.08,0-.12H707v.59a2.57,2.57,0,0,0,.5,1.1Z" transform="translate(-644.39 -371.02)"/><path class="cls-3" d="M707.49,469.59a2.11,2.11,0,0,0,0,.37h0Z" transform="translate(-644.39 -371.02)"/><path class="cls-3" d="M707.49,467.66a3.13,3.13,0,0,0-.5.56v1.38a2.59,2.59,0,0,1,.5-1.2Z" transform="translate(-644.39 -371.02)"/><path class="cls-3" d="M707,470a2.59,2.59,0,0,1,0-.37v-1.38a3.1,3.1,0,0,0-.5,1.38V470Z" transform="translate(-644.39 -371.02)"/><path class="cls-3" d="M707,469.59a2.59,2.59,0,0,0,0,.37h0Z" transform="translate(-644.39 -371.02)"/><path class="cls-3" d="M712.63,394.46h0s0,0,0,.06Z" transform="translate(-644.39 -371.02)"/><path class="cls-3" d="M711.64,394.58s0,0,0-.05v.11S711.64,394.6,711.64,394.58Z" transform="translate(-644.39 -371.02)"/><path class="cls-3" d="M712.13,394.46h0s0,0,0,.07Z" transform="translate(-644.39 -371.02)"/><path class="cls-3" d="M712.14,394.58s0,0,0-.05v.1S712.14,394.59,712.14,394.58Z" transform="translate(-644.39 -371.02)"/><path class="cls-3" d="M711.63,470h.06a2.1,2.1,0,0,0-.06-.48Z" transform="translate(-644.39 -371.02)"/><path class="cls-3" d="M711.63,467.64v.72a2.6,2.6,0,0,1,.5,1.05v-1.23A3.13,3.13,0,0,0,711.63,467.64Z" transform="translate(-644.39 -371.02)"/><path class="cls-3" d="M712.13,470h.06a2.62,2.62,0,0,0-.06-.55Z" transform="translate(-644.39 -371.02)"/><path class="cls-3" d="M712.13,468.19a3.1,3.1,0,0,1,.5,1.18V394.63a3.08,3.08,0,0,1-.5,1.63Z" transform="translate(-644.39 -371.02)"/><path class="cls-3" d="M707,394.46a2.59,2.59,0,0,1,5.17,0h.5a3.09,3.09,0,0,0-6.18.12,3.06,3.06,0,0,0,0,.47v-.59Z" transform="translate(-644.39 -371.02)"/><path class="cls-3" d="M707.46,394.46a2.09,2.09,0,0,1,4.18.06v-.06h.49a2.59,2.59,0,0,0-5.17,0h.5Z" transform="translate(-644.39 -371.02)"/><path class="cls-3" d="M712.63,469.37V470h-.44a2.62,2.62,0,0,1-5.24,0h-.46v-.37a3.06,3.06,0,0,0,0,.37,3.12,3.12,0,1,0,6.18-.59Z" transform="translate(-644.39 -371.02)"/><path class="cls-3" d="M711.69,470a2.12,2.12,0,1,1-4.24,0H707a2.62,2.62,0,0,0,5.24,0h-.5Z" transform="translate(-644.39 -371.02)"/><path class="cls-3" d="M707,396.33a3.07,3.07,0,0,1-.5-1.28v74.54a3.1,3.1,0,0,1,.5-1.38Z" transform="translate(-644.39 -371.02)"/><path class="cls-3" d="M707.49,467.66V396.88a3.11,3.11,0,0,1-.5-.55v71.88A3.13,3.13,0,0,1,707.49,467.66Z" transform="translate(-644.39 -371.02)"/><path class="cls-3" d="M707.49,396.88v-.73a2.57,2.57,0,0,1-.5-1.1v1.28A3.11,3.11,0,0,0,707.49,396.88Z" transform="translate(-644.39 -371.02)"/><path class="cls-3" d="M707,395.05a2.6,2.6,0,0,1,0-.47s0-.08,0-.12h-.46v.59a3.07,3.07,0,0,0,.5,1.28Z" transform="translate(-644.39 -371.02)"/><path class="cls-3" d="M707.45,470a2.11,2.11,0,0,1,0-.37v-1.2a2.59,2.59,0,0,0-.5,1.2V470Z" transform="translate(-644.39 -371.02)"/><path class="cls-3" d="M711.63,396.85v70.79a3.13,3.13,0,0,1,.5.55V396.26A3.11,3.11,0,0,1,711.63,396.85Z" transform="translate(-644.39 -371.02)"/><path class="cls-3" d="M712.13,394.53s0,0,0,.05,0,0,0,.05v1.64a3.08,3.08,0,0,0,.5-1.63v-.11s0,0,0-.06h-.49Z" transform="translate(-644.39 -371.02)"/><path class="cls-3" d="M711.63,396.85a3.11,3.11,0,0,0,.5-.58v-1.64a2.58,2.58,0,0,1-.5,1.48Z" transform="translate(-644.39 -371.02)"/><path class="cls-3" d="M711.63,394.52s0,0,0,.05,0,0,0,.05v1.47a2.58,2.58,0,0,0,.5-1.48v-.1s0,0,0-.07h-.49Z" transform="translate(-644.39 -371.02)"/><path class="cls-3" d="M712.13,469.41a2.62,2.62,0,0,1,.06.55h.44v-.59a3.1,3.1,0,0,0-.5-1.18Z" transform="translate(-644.39 -371.02)"/><path class="cls-3" d="M711.63,469.48a2.1,2.1,0,0,1,.06.48h.44v-.55a2.6,2.6,0,0,0-.5-1.05Z" transform="translate(-644.39 -371.02)"/><path class="cls-3" d="M723.58,467.64V396.85a3.05,3.05,0,0,1-4.14,0v70.77a3.07,3.07,0,0,1,4.14,0Z" transform="translate(-644.39 -371.02)"/><path class="cls-3" d="M721.49,396.68a2.1,2.1,0,0,0,2.09-2v-.11a2.09,2.09,0,0,0-4.18-.06h0V395A2.1,2.1,0,0,0,721.49,396.68Z" transform="translate(-644.39 -371.02)"/><path class="cls-3" d="M724.58,394.58s0,0,0-.05v.11S724.58,394.6,724.58,394.58Z" transform="translate(-644.39 -371.02)"/><path class="cls-3" d="M723.58,469.48a2.11,2.11,0,0,0-4.14.11V470h0a2.12,2.12,0,1,0,4.24,0h-.06Z" transform="translate(-644.39 -371.02)"/><path class="cls-3" d="M719.4,394.46s0,.08,0,.12a2.09,2.09,0,0,0,0,.44v-.55Z" transform="translate(-644.39 -371.02)"/><path class="cls-3" d="M718.9,394.46s0,.08,0,.12a2.6,2.6,0,0,0,0,.47v-.59Z" transform="translate(-644.39 -371.02)"/><path class="cls-3" d="M719.44,395a2.09,2.09,0,0,1,0-.44s0-.08,0-.12h-.46v.59a2.57,2.57,0,0,0,.5,1.1Z" transform="translate(-644.39 -371.02)"/><path class="cls-3" d="M719.44,469.59a2.11,2.11,0,0,0,0,.37h0Z" transform="translate(-644.39 -371.02)"/><path class="cls-3" d="M719.44,467.66a3.13,3.13,0,0,0-.5.56v1.38a2.59,2.59,0,0,1,.5-1.2Z" transform="translate(-644.39 -371.02)"/><path class="cls-3" d="M718.9,470a2.59,2.59,0,0,1,0-.37v-1.38a3.1,3.1,0,0,0-.5,1.38V470Z" transform="translate(-644.39 -371.02)"/><path class="cls-3" d="M718.94,469.59a2.59,2.59,0,0,0,0,.37h0Z" transform="translate(-644.39 -371.02)"/><path class="cls-3" d="M724.58,394.46h0s0,0,0,.06Z" transform="translate(-644.39 -371.02)"/><path class="cls-3" d="M723.58,394.58s0,0,0-.05v.11S723.58,394.6,723.58,394.58Z" transform="translate(-644.39 -371.02)"/><path class="cls-3" d="M724.08,394.46h0s0,0,0,.07Z" transform="translate(-644.39 -371.02)"/><path class="cls-3" d="M724.08,394.58s0,0,0-.05v.1S724.08,394.59,724.08,394.58Z" transform="translate(-644.39 -371.02)"/><path class="cls-3" d="M723.58,470h.06a2.1,2.1,0,0,0-.06-.48Z" transform="translate(-644.39 -371.02)"/><path class="cls-3" d="M723.58,467.64v.72a2.6,2.6,0,0,1,.5,1.05v-1.23A3.13,3.13,0,0,0,723.58,467.64Z" transform="translate(-644.39 -371.02)"/><path class="cls-3" d="M724.08,470h.06a2.62,2.62,0,0,0-.06-.55Z" transform="translate(-644.39 -371.02)"/><path class="cls-3" d="M724.08,468.19a3.1,3.1,0,0,1,.5,1.18V394.63a3.08,3.08,0,0,1-.5,1.63Z" transform="translate(-644.39 -371.02)"/><path class="cls-3" d="M718.9,394.46a2.59,2.59,0,0,1,5.17,0h.5a3.09,3.09,0,0,0-6.18.12,3.06,3.06,0,0,0,0,.47v-.59Z" transform="translate(-644.39 -371.02)"/><path class="cls-3" d="M719.4,394.46a2.09,2.09,0,0,1,4.18.06v-.06h.49a2.59,2.59,0,0,0-5.17,0h.5Z" transform="translate(-644.39 -371.02)"/><path class="cls-3" d="M724.58,469.37V470h-.44a2.62,2.62,0,0,1-5.24,0h-.46v-.37a3.06,3.06,0,0,0,0,.37,3.12,3.12,0,1,0,6.18-.59Z" transform="translate(-644.39 -371.02)"/><path class="cls-3" d="M723.64,470a2.12,2.12,0,1,1-4.24,0h-.5a2.62,2.62,0,0,0,5.24,0h-.5Z" transform="translate(-644.39 -371.02)"/><path class="cls-3" d="M718.94,396.33a3.07,3.07,0,0,1-.5-1.28v74.54a3.1,3.1,0,0,1,.5-1.38Z" transform="translate(-644.39 -371.02)"/><path class="cls-3" d="M719.44,467.66V396.88a3.11,3.11,0,0,1-.5-.55v71.88A3.13,3.13,0,0,1,719.44,467.66Z" transform="translate(-644.39 -371.02)"/><path class="cls-3" d="M719.44,396.88v-.73a2.57,2.57,0,0,1-.5-1.1v1.28A3.11,3.11,0,0,0,719.44,396.88Z" transform="translate(-644.39 -371.02)"/><path class="cls-3" d="M718.94,395.05a2.6,2.6,0,0,1,0-.47s0-.08,0-.12h-.46v.59a3.07,3.07,0,0,0,.5,1.28Z" transform="translate(-644.39 -371.02)"/><path class="cls-3" d="M719.4,470a2.11,2.11,0,0,1,0-.37v-1.2a2.59,2.59,0,0,0-.5,1.2V470Z" transform="translate(-644.39 -371.02)"/><path class="cls-3" d="M723.58,396.85v70.79a3.13,3.13,0,0,1,.5.55V396.26A3.11,3.11,0,0,1,723.58,396.85Z" transform="translate(-644.39 -371.02)"/><path class="cls-3" d="M724.08,394.53s0,0,0,.05,0,0,0,.05v1.64a3.08,3.08,0,0,0,.5-1.63v-.11s0,0,0-.06h-.49Z" transform="translate(-644.39 -371.02)"/><path class="cls-3" d="M723.58,396.85a3.11,3.11,0,0,0,.5-.58v-1.64a2.58,2.58,0,0,1-.5,1.48Z" transform="translate(-644.39 -371.02)"/><path class="cls-3" d="M723.58,394.52s0,0,0,.05,0,0,0,.05v1.47a2.58,2.58,0,0,0,.5-1.48v-.1s0,0,0-.07h-.49Z" transform="translate(-644.39 -371.02)"/><path class="cls-3" d="M724.08,469.41a2.62,2.62,0,0,1,.06.55h.44v-.59a3.1,3.1,0,0,0-.5-1.18Z" transform="translate(-644.39 -371.02)"/><path class="cls-3" d="M723.58,469.48a2.1,2.1,0,0,1,.06.48h.44v-.55a2.6,2.6,0,0,0-.5-1.05Z" transform="translate(-644.39 -371.02)"/><path class="cls-4" d="M752.71,382.46a5.16,5.16,0,0,1-.32-.46H644.58c0,.36-.08.72-.13,1.08,0,.09,0,.17-.06.25,12.31,2,31,3.42,53.38,3.42,23.65,0,43.14-1.59,55.38-3.75A4.68,4.68,0,0,1,752.71,382.46Z" transform="translate(-644.39 -371.02)"/><rect class="cls-3" x="15.07" y="23.34" width="4.79" height="3.84"/><rect class="cls-3" x="15.29" y="94.61" width="4.62" height="5.09"/><rect class="cls-3" x="27.27" y="94.8" width="4.62" height="5.09"/><rect class="cls-3" x="38.97" y="94.09" width="4.62" height="5.09"/><rect class="cls-3" x="50.92" y="94.83" width="4.62" height="5.09"/><rect class="cls-3" x="62.86" y="94.8" width="4.62" height="5.09"/><rect class="cls-3" x="26.95" y="23.62" width="4.79" height="3.84"/><rect class="cls-3" x="38.9" y="23.22" width="4.79" height="3.84"/><rect class="cls-3" x="50.81" y="23.74" width="4.79" height="3.84"/><rect class="cls-3" x="74.59" y="23.34" width="4.79" height="3.84"/><rect class="cls-3" x="62.79" y="23.74" width="4.79" height="3.84"/><rect class="cls-3" x="86.64" y="23.34" width="4.79" height="3.84"/><rect class="cls-3" x="74.81" y="94.09" width="4.62" height="5.09"/><rect class="cls-3" x="86.99" y="95.06" width="4.62" height="5.09"/><path class="cls-4" d="M698.31,380.69c22.77,0,40.69-.66,48.54-1.44H649.77C657.61,380,675.54,380.69,698.31,380.69Z" transform="translate(-644.39 -371.02)"/><path class="cls-4" d="M735.33,381h15.3v-1.3c-1.74.42-5.7.86-14.68,1.27Z" transform="translate(-644.39 -371.02)"/><path class="cls-4" d="M646,379.7V381h15.29l-.62,0C651.71,380.56,647.75,380.12,646,379.7Z" transform="translate(-644.39 -371.02)"/><path class="cls-4" d="M698.31,376.81c-22.77,0-40.69.66-48.54,1.44h97.08C739,377.47,721.08,376.81,698.31,376.81Z" transform="translate(-644.39 -371.02)"/><path d="M751.6,379.36a4.18,4.18,0,0,1-1,.33V381h-15.3c-10,.44-23.09.69-37,.69s-27-.24-37-.69H646v-1.3a4.15,4.15,0,0,1-1-.34V382H751.63v-2.35C751.61,379.55,751.6,379.46,751.6,379.36Z" transform="translate(-644.39 -371.02)"/><path d="M735.61,376.53c-10.05-.46-23.42-.71-37.64-.71s-27.58.25-37.64.71c-10.53.48-14.14,1-15.39,1.49,0,.08,0,.15,0,.23h4.48c7.85-.78,25.77-1.44,48.54-1.44s40.69.66,48.54,1.44h4.73s0-.07,0-.11C750.29,377.62,747,377,735.61,376.53Z" transform="translate(-644.39 -371.02)"/><path d="M698.13,381.69c13.93,0,27-.24,37-.69h-74C671.09,381.44,684.2,381.69,698.13,381.69Z" transform="translate(-644.39 -371.02)"/><path d="M751.58,378.25h-4.73a30.82,30.82,0,0,1,3.56.5,30.82,30.82,0,0,1-3.56.5h3.78v.45a4.18,4.18,0,0,0,1-.33,2.4,2.4,0,0,1,0-.38s0-.07,0-.11A5.18,5.18,0,0,1,751.58,378.25Z" transform="translate(-644.39 -371.02)"/><path d="M646,379.25h3.77a30.82,30.82,0,0,1-3.56-.5,30.82,30.82,0,0,1,3.56-.5H645v1.11a4.15,4.15,0,0,0,1,.34Z" transform="translate(-644.39 -371.02)"/><polygon class="cls-5" points="1.61 8.95 1.61 7.73 5.3 7.73 5.24 8.95 1.61 8.95"/><polygon class="cls-5" points="102.14 9.59 106.23 9.67 106.23 7.75 102.78 7.75 101.58 8.32 102.14 9.59"/><path d="M692.53,372h11.19v4.78h1V371H691.53v5.8h1Z" transform="translate(-644.39 -371.02)"/><rect class="cls-1" x="48.14" y="0.51" width="11.19" height="4.78"/><path class="cls-4" d="M646,381" transform="translate(-644.39 -371.02)"/><polyline class="cls-6" points="1.61 9.98 1.61 7.73 5.61 7.18 15.55 6.51 31.14 6.01 44.58 5.79 57.95 5.79 76.45 6.01 88.11 6.26 95.49 6.74 101.98 7.11 103.61 7.23 106.23 7.75 106.23 9.98"/></svg>