<svg id="Layer_1" data-name="Layer 1" xmlns="http://www.w3.org/2000/svg" viewBox="0 0 496.59 496.59"><defs><style>.cls-1{fill:#f54747;stroke:#20163e;stroke-miterlimit:10;stroke-width:14px;}.cls-2{fill:none;}.cls-3{fill:#20163e;}</style></defs><title>logos</title><circle class="cls-1" cx="248.29" cy="248.29" r="241.29"/><path class="cls-2" d="M867.15,350V450h0v13.75h0V577.51h2.44q47.36,0,71.29-4.27a118.24,118.24,0,0,0,45.41-18.68,104.14,104.14,0,0,0,34.18-38.21q12.69-23.8,12.7-52.37A110.92,110.92,0,0,0,1012.9,399Q992.64,370,964.44,360t-75.81-10H867.15Z" transform="translate(-678.2 -215.45)"/><polygon class="cls-3" points="188.95 134.52 188.9 93.02 146.47 93.02 146.47 234.54 188.95 234.54 188.95 134.52"/><polygon class="cls-3" points="146.47 248.29 146.47 404.06 188.92 404.06 188.95 362.06 188.95 248.29 146.47 248.29"/><path class="cls-3" d="M1046.84,464q0,28.56-12.7,52.37A104.14,104.14,0,0,1,1000,554.56a118.24,118.24,0,0,1-45.41,18.68q-23.93,4.27-71.29,4.27h-2.44l0,42h33.48q86.18,0,131.35-47.12T1090.78,464c0-.08,0-.16,0-.24h-43.95C1046.83,463.82,1046.84,463.9,1046.84,464Z" transform="translate(-678.2 -215.45)"/><path class="cls-3" d="M1047.08,355.83q-43.71-47.36-133.3-47.36h-33l.05,41.5H902.3q47.61,0,75.81,10T1026.57,399A110.14,110.14,0,0,1,1046,450h44.16Q1085.68,397.67,1047.08,355.83Z" transform="translate(-678.2 -215.45)"/><line class="cls-2" x1="167.71" y1="248.29" x2="196.13" y2="290.05"/><line class="cls-2" x1="185.71" y1="270.29" x2="214.13" y2="312.05"/><line class="cls-2" x1="167.71" y1="248.29" x2="139.29" y2="290.05"/><line class="cls-2" x1="167.71" y1="92.76" x2="196.13" y2="134.52"/><line class="cls-2" x1="167.71" y1="92.76" x2="139.29" y2="134.52"/><line class="cls-2" x1="220.83" y1="190.17" x2="262.59" y2="161.75"/><line class="cls-2" x1="220.83" y1="190.17" x2="262.59" y2="218.6"/></svg>