<svg id="Layer_1" data-name="Layer 1" xmlns="http://www.w3.org/2000/svg" viewBox="0 0 655.09 629.46"><defs><style>.cls-1{fill:#f54747;stroke:#20163e;stroke-miterlimit:10;stroke-width:14px;}.cls-2{fill:none;}.cls-3,.cls-4{fill:#20163e;}.cls-4{font-size:125px;font-family:MSReferenceSansSerif, MS Reference Sans Serif;}.cls-5{letter-spacing:-0.06em;}</style></defs><title>logocompleto</title><circle class="cls-1" cx="327.54" cy="248.29" r="241.29"/><path class="cls-2" d="M900.65,460V560h0v13.75h0V687.51h2.44q47.36,0,71.29-4.27a118.24,118.24,0,0,0,45.41-18.68A104.14,104.14,0,0,0,1054,626.35q12.69-23.8,12.7-52.37A110.92,110.92,0,0,0,1046.41,509Q1026.14,480,997.94,470t-75.81-10H900.65Z" transform="translate(-632.46 -325.45)"/><polygon class="cls-3" points="268.2 134.52 268.15 93.02 225.72 93.02 225.72 234.54 268.2 234.54 268.2 134.52"/><polygon class="cls-3" points="225.72 248.29 225.72 404.06 268.17 404.06 268.2 362.06 268.2 248.29 225.72 248.29"/><path class="cls-3" d="M1080.34,574q0,28.56-12.7,52.37a104.14,104.14,0,0,1-34.18,38.21,118.24,118.24,0,0,1-45.41,18.68q-23.93,4.27-71.29,4.27h-2.44l0,42h33.48q86.18,0,131.35-47.12T1124.28,574c0-.08,0-.16,0-.24h-43.95C1080.33,573.82,1080.34,573.9,1080.34,574Z" transform="translate(-632.46 -325.45)"/><path class="cls-3" d="M1080.58,465.83q-43.71-47.36-133.3-47.36h-33l.05,41.5h21.48q47.61,0,75.81,10T1060.07,509A110.14,110.14,0,0,1,1079.52,560h44.16Q1119.18,507.67,1080.58,465.83Z" transform="translate(-632.46 -325.45)"/><line class="cls-2" x1="246.96" y1="248.29" x2="275.38" y2="290.05"/><line class="cls-2" x1="264.96" y1="270.29" x2="293.38" y2="312.05"/><line class="cls-2" x1="246.96" y1="248.29" x2="218.54" y2="290.05"/><line class="cls-2" x1="246.96" y1="92.76" x2="275.38" y2="134.52"/><line class="cls-2" x1="246.96" y1="92.76" x2="218.54" y2="134.52"/><line class="cls-2" x1="300.08" y1="190.17" x2="341.84" y2="161.75"/><line class="cls-2" x1="300.08" y1="190.17" x2="341.84" y2="218.6"/><text class="cls-4" transform="translate(0 603.22)">DELEG<tspan class="cls-5" x="420.9" y="0">A</tspan><tspan x="499.02" y="0">TE</tspan></text></svg>